<svg width="635" height="635" viewBox="0 0 635 635" fill="none" xmlns="http://www.w3.org/2000/svg">
<path d="M635 0H0V635H635V0Z" fill="white"/>
<path d="M147.765 200.471C114.352 222.831 90.7668 205.569 70.5711 229.269C7.59108 303.187 87.4056 331.188 50.3184 342.524C10.0693 354.83 35.1074 409.179 57.7529 424.874C80.3984 440.569 97.2614 450.026 65.0735 466.063C32.8856 482.1 27.2741 499.875 40.7474 528.758C54.2493 557.642 79.8002 566.757 186.077 568.466C292.354 570.175 498.129 566.558 554.272 550.122C610.416 533.686 569.483 491.386 593.097 459.797C616.711 428.207 621.354 409.663 585.207 379.014C549.06 348.364 569.654 316.66 580.507 294.3C591.36 271.939 599.706 231.377 556.152 219.812C512.599 208.247 461.953 254.392 440.02 230.949C418.115 207.506 427.743 176.401 379.917 184.234C332.091 192.068 315.968 252.683 274.266 249.351C232.507 245.989 218.55 153.043 147.765 200.471Z" fill="#F5F5FF"/>
<path d="M187.611 361.442L187.071 360.871L190.532 357.569L191.071 358.14L187.611 361.442ZM194.5 354.87L193.929 354.298C195.04 353.187 196.183 352.044 197.263 350.933L197.834 351.473C196.755 352.616 195.612 353.759 194.5 354.87ZM201.104 347.98L200.533 347.44C201.581 346.297 202.66 345.091 203.676 343.884L204.279 344.392C203.232 345.599 202.152 346.805 201.104 347.98ZM207.359 340.741L206.756 340.233C207.74 339.027 208.756 337.788 209.74 336.518L210.375 336.995C209.359 338.296 208.343 339.535 207.359 340.741ZM213.233 333.216L212.598 332.74C213.519 331.502 214.471 330.2 215.392 328.898L216.027 329.343C215.106 330.676 214.154 331.978 213.233 333.216ZM218.757 325.438L218.091 324.993C218.98 323.691 219.869 322.358 220.726 321.024L221.393 321.469C220.504 322.802 219.646 324.136 218.757 325.438ZM262.223 319.945C260.763 319.945 259.27 319.659 257.937 319.119L258.223 318.389C259.461 318.897 260.826 319.151 262.191 319.151C262.382 319.119 262.541 319.151 262.699 319.151L262.731 319.945C262.604 319.945 262.382 319.945 262.223 319.945ZM267.494 318.58L267.081 317.881C268.383 317.119 269.494 316.008 270.256 314.674L270.954 315.055C270.129 316.548 268.922 317.754 267.494 318.58ZM223.933 317.437L223.266 317.024C224.091 315.69 224.917 314.325 225.742 312.96L226.409 313.373C225.615 314.738 224.79 316.103 223.933 317.437ZM253.936 316.325C252.857 315.182 252 313.785 251.333 312.198L252.063 311.88C252.698 313.373 253.524 314.674 254.54 315.754L253.936 316.325ZM272.288 310.356L271.494 310.325V310.102C271.494 308.928 271.24 307.753 270.796 306.737C270.669 306.483 270.542 306.229 270.415 305.975L271.113 305.594C271.272 305.88 271.399 306.134 271.526 306.419C272.034 307.531 272.288 308.801 272.288 310.102V310.356ZM229.14 309.531L228.536 309.023C229.552 307.785 230.695 306.642 231.934 305.594L232.442 306.197C231.235 307.213 230.124 308.356 229.14 309.531ZM250.095 307.531C249.999 306.769 249.968 306.007 249.968 305.245C249.968 304.419 250.031 303.562 250.126 302.705L250.92 302.8C250.825 303.625 250.761 304.451 250.761 305.245C250.761 305.975 250.793 306.737 250.888 307.435L250.095 307.531ZM236.22 303.403L235.807 302.736C237.141 301.911 238.601 301.149 240.093 300.514L240.411 301.244C238.919 301.879 237.522 302.609 236.22 303.403ZM267.335 302.609C266.192 301.72 264.827 300.958 263.271 300.355L263.557 299.625C265.144 300.26 266.573 301.054 267.811 301.974L267.335 302.609ZM244.824 299.688L244.602 298.926C246.158 298.514 247.745 298.196 249.333 298.006L249.428 298.799C247.872 298.99 246.316 299.276 244.824 299.688ZM258.794 299.053C257.302 298.768 255.714 298.609 254.127 298.577L254.159 297.783C255.81 297.815 257.397 298.006 258.953 298.291L258.794 299.053ZM252 298.228L251.238 297.974C251.777 296.482 252.476 294.989 253.333 293.624L254 294.037C253.206 295.37 252.539 296.799 252 298.228ZM256.857 290.29L256.286 289.751C256.508 289.497 256.762 289.243 256.984 289.02C257.873 288.131 258.858 287.306 259.874 286.544L260.35 287.179C259.334 287.909 258.381 288.735 257.524 289.56C257.302 289.814 257.08 290.068 256.857 290.29ZM264.382 284.766L264.033 284.067C265.462 283.369 266.986 282.766 268.51 282.289L268.732 283.051C267.24 283.496 265.779 284.067 264.382 284.766ZM273.336 281.845L273.145 281.083C274.701 280.67 276.225 280.257 277.749 279.845L277.971 280.607C276.447 281.019 274.891 281.464 273.336 281.845ZM282.511 279.241L282.289 278.479C283.813 278.003 285.337 277.495 286.798 276.987L287.052 277.749C285.559 278.257 284.035 278.765 282.511 279.241ZM291.528 276.098L291.243 275.368C292.735 274.796 294.195 274.193 295.624 273.558L295.942 274.288C294.513 274.892 293.021 275.495 291.528 276.098ZM300.291 272.288L299.942 271.558L304.228 269.462L304.578 270.161L300.291 272.288ZM308.864 268.129L308.515 267.43L312.801 265.335L313.15 266.033L308.864 268.129ZM317.436 263.97L317.087 263.271L321.373 261.176L321.723 261.874L317.436 263.97ZM325.977 259.81L325.628 259.112L329.914 257.016L330.263 257.715L325.977 259.81ZM334.55 255.651L334.2 254.953L338.487 252.857L338.836 253.556L334.55 255.651Z" fill="#9192FF"/>
<path d="M319.913 108.045C319.913 108.204 319.913 108.363 319.945 108.522H424.339C424.053 99.9174 416.592 93.0277 407.384 93.0277C404.431 93.0277 401.669 93.7262 399.256 94.9644C399.383 88.2652 396.176 81.8517 390.239 78.4227C381.349 73.2792 369.697 76.7717 364.268 86.2332C362.617 89.0907 361.728 92.1704 361.537 95.2184C357.187 93.2182 351.822 92.0434 345.98 92.0434C331.565 92.0434 319.913 99.2189 319.913 108.045Z" fill="#EBEBFF"/>
<path d="M146.272 351.949H60.1979V351.631C60.4202 344.361 66.6432 338.645 74.3902 338.645C76.5809 338.645 78.7717 339.122 80.7402 340.074C80.8037 334.486 83.6612 329.406 88.2649 326.739C91.6939 324.739 95.7897 324.231 99.7267 325.279C104.013 326.422 107.664 329.247 109.95 333.248C111.22 335.47 111.982 337.852 112.204 340.297C115.856 338.677 120.174 337.852 124.682 337.852C136.62 337.852 146.304 343.853 146.304 351.25C146.304 351.409 146.304 351.536 146.272 351.695V351.949ZM60.8012 351.377H145.701C145.701 351.345 145.701 351.314 145.701 351.282C145.701 344.234 136.271 338.487 124.682 338.487C120.11 338.487 115.729 339.376 112.077 341.058L111.696 341.249L111.665 340.805C111.506 338.265 110.744 335.851 109.442 333.565C107.22 329.724 103.727 326.993 99.5997 325.882C95.7897 324.866 91.8844 325.342 88.5824 327.279C84.0104 329.946 81.2482 335.026 81.3434 340.582V341.09L80.8989 340.868C78.8987 339.852 76.6444 339.312 74.3902 339.312C67.0877 339.249 61.1822 344.551 60.8012 351.377Z" fill="#9192FF"/>
<path d="M314.579 343.376C314.579 353.505 322.802 361.76 332.962 361.76H536.988C547.116 361.76 555.371 353.536 555.371 343.376V219.234H314.579V343.376Z" fill="white"/>
<path d="M301.974 250.92C304.8 241.903 313.69 234.982 323.406 234.252C333.121 233.521 343.059 239.014 347.313 247.523C352.489 247.46 357.6 250.349 360.108 254.73C362.617 259.112 362.458 264.795 359.664 269.018C365.824 270.097 371.348 274.13 374.078 279.591C376.809 285.052 376.65 291.751 373.698 297.053C380.492 293.592 389.16 293.91 395.668 297.847C402.177 301.784 406.273 309.182 406.051 316.579C410.274 309.944 418.37 305.816 426.434 306.197C434.499 306.578 442.182 311.404 445.738 318.389C449.517 307.086 459.613 297.942 471.519 295.021C483.457 292.1 496.824 295.497 505.777 303.689C519.208 305.784 528.987 320.358 525.494 333.058C532.733 339.058 536.448 348.806 534.924 357.918C533.4 367.03 526.732 375.158 517.874 378.619L286.83 378.46L267.145 290.322L301.974 250.92Z" fill="#D1D1FF"/>
<g opacity="0.8">
<path opacity="0.8" d="M298.323 280.194C301.053 271.177 309.658 264.224 319.056 263.493C328.454 262.763 338.042 268.256 342.138 276.733C347.154 276.67 352.076 279.559 354.489 283.909C356.902 288.29 356.743 293.973 354.044 298.196C360.013 299.244 365.347 303.308 367.982 308.769C370.618 314.23 370.459 320.929 367.601 326.231C374.174 322.771 382.556 323.088 388.81 326.993C395.097 330.93 399.066 338.328 398.812 345.726C402.907 339.09 410.718 334.963 418.497 335.312C426.275 335.661 433.705 340.519 437.166 347.504C440.817 336.201 450.564 327.057 462.089 324.104C473.615 321.183 486.537 324.549 495.173 332.74C508.159 334.836 517.588 349.409 514.191 362.109C521.208 368.11 524.764 377.857 523.303 386.969C521.843 396.081 515.366 404.209 506.825 407.67L283.591 407.702L264.636 319.564L298.323 280.194Z" fill="white"/>
</g>
<path opacity="0.7" d="M475.774 223.234C408.908 286.131 361.474 303.086 301.752 309.15L297.783 372.65L360.489 394.081C415.258 392.494 467.836 313.214 500.317 245.174L475.774 223.234Z" fill="#FFF2E0"/>
<path d="M485.204 224.06C474.345 236.919 457.93 249.238 438.594 265.843L464.979 255.08C461.74 260.445 457.041 267.938 454.374 271.177C460.47 268.383 470.249 262.192 473.488 258.921C473.488 263.493 467.995 271.145 465.582 275.304C479.647 263.271 492.474 248.539 496.602 235.649L485.204 224.06Z" fill="#FFA121"/>
<path opacity="0.4" d="M488.283 224.695C481.838 233.236 472.218 241.427 460.851 252.508L476.25 245.205C474.313 248.761 471.519 253.714 469.963 255.842C473.519 253.937 479.234 249.809 481.171 247.618C481.108 250.603 477.869 255.651 476.409 258.413C484.695 250.381 492.252 240.633 494.792 232.156L488.283 224.695Z" fill="white"/>
<path d="M388.429 268.383C388.525 270.383 388.429 273.717 386.429 274.892C383.127 276.797 380.492 272.161 379.285 269.812C377.825 267.018 378.206 263.557 381.476 262.287C385.826 260.636 388.271 264.668 388.429 268.383Z" fill="#D1D1FF"/>
<path d="M545.624 328.74C545.719 330.74 545.624 334.074 543.623 335.248C540.321 337.153 537.686 332.518 536.48 330.169C535.019 327.375 535.4 323.914 538.67 322.644C543.02 320.993 545.465 325.025 545.624 328.74Z" fill="#D1D1FF"/>
<path d="M370.808 248.698C372.351 248.698 373.602 247.447 373.602 245.904C373.602 244.361 372.351 243.11 370.808 243.11C369.265 243.11 368.014 244.361 368.014 245.904C368.014 247.447 369.265 248.698 370.808 248.698Z" fill="#D1D1FF"/>
<path d="M513.986 299.8C516.074 298.762 516.926 296.227 515.888 294.139C514.85 292.05 512.315 291.199 510.227 292.237C508.138 293.275 507.287 295.809 508.325 297.898C509.363 299.986 511.897 300.838 513.986 299.8Z" fill="#D1D1FF"/>
<path d="M536.956 362.14H332.931C322.58 362.14 314.166 353.727 314.166 343.376V218.853H555.72V343.376C555.72 353.727 547.306 362.14 536.956 362.14ZM314.96 219.647V343.376C314.96 353.282 323.025 361.347 332.931 361.347H536.956C546.862 361.347 554.927 353.282 554.927 343.376V219.647H314.96Z" fill="#9192FF"/>
<path d="M536.956 171.164H332.93C322.802 171.164 314.547 179.387 314.547 189.547V219.265H555.308V189.547C555.339 179.387 547.084 171.164 536.956 171.164Z" fill="white"/>
<path d="M555.72 219.646H314.166V189.547C314.166 179.197 322.58 170.783 332.931 170.783H536.956C547.306 170.783 555.72 179.197 555.72 189.547V219.646ZM314.96 218.853H554.927V189.547C554.927 179.641 546.862 171.577 536.956 171.577H332.931C323.025 171.577 314.96 179.641 314.96 189.547V218.853Z" fill="#9192FF"/>
<path d="M348.672 197.208C349.778 191.761 346.258 186.448 340.811 185.343C335.363 184.237 330.051 187.757 328.945 193.204C327.84 198.652 331.36 203.964 336.807 205.07C342.255 206.175 347.567 202.656 348.672 197.208Z" fill="#D1D1FF"/>
<path d="M375.592 202.319C379.523 198.388 379.523 192.016 375.592 188.085C371.662 184.155 365.289 184.155 361.359 188.085C357.428 192.016 357.428 198.388 361.359 202.319C365.289 206.249 371.662 206.249 375.592 202.319Z" fill="white"/>
<path d="M368.491 205.676C362.712 205.676 358.013 200.977 358.013 195.199C358.013 189.42 362.712 184.721 368.491 184.721C374.269 184.721 378.968 189.42 378.968 195.199C378.968 200.977 374.269 205.676 368.491 205.676ZM368.491 185.547C363.157 185.547 358.807 189.897 358.807 195.231C358.807 200.565 363.157 204.914 368.491 204.914C373.825 204.914 378.174 200.565 378.174 195.231C378.174 189.897 373.825 185.547 368.491 185.547Z" fill="#9192FF"/>
<path d="M445.135 204.819H405.035C399.733 204.819 395.415 200.501 395.415 195.199C395.415 189.897 399.733 185.579 405.035 185.579H445.135C450.437 185.579 454.755 189.897 454.755 195.199C454.755 200.533 450.437 204.819 445.135 204.819Z" fill="white"/>
<path d="M445.135 205.232H405.035C399.51 205.232 395.034 200.755 395.034 195.231C395.034 189.706 399.51 185.229 405.035 185.229H445.135C450.66 185.229 455.136 189.706 455.136 195.231C455.136 200.723 450.66 205.232 445.135 205.232ZM405.035 185.991C399.955 185.991 395.827 190.119 395.827 195.199C395.827 200.279 399.955 204.406 405.035 204.406H445.135C450.215 204.406 454.343 200.279 454.343 195.199C454.343 190.119 450.215 185.991 445.135 185.991H405.035Z" fill="#9192FF"/>
<path d="M526.986 149.257C510.921 163.322 483.171 153.638 474.567 164.878L499.205 184.372L526.986 149.257Z" fill="#7E57EE"/>
<path d="M474.536 164.878C473.297 168.148 473.964 171.831 476.282 174.498L493.744 194.469L499.173 184.372L474.536 164.878Z" fill="#D1D1FF"/>
<path d="M563.404 178.118C553.402 197.009 569.182 221.774 560.229 232.728L535.591 213.233L563.404 178.118Z" fill="#7E57EE"/>
<path d="M560.229 232.728C557.308 234.664 553.561 234.887 550.481 233.236L527.018 220.821L535.591 213.201L560.229 232.728Z" fill="#D1D1FF"/>
<path d="M575.913 125.063L554.006 133.128L573.119 148.241L575.913 125.063Z" fill="#1B1B43"/>
<path d="M573.119 148.241C570.071 182.944 544.417 215.297 513.302 233.267L484.949 210.82C496.856 173.355 519.017 146.558 554.037 133.096L573.119 148.241Z" fill="#C5C5FF"/>
<path d="M484.918 210.852L472.63 219.361L507.809 247.238L513.302 233.299L484.918 210.852Z" fill="#7E57EE"/>
<path d="M547.34 176.193C554.566 175.334 559.727 168.779 558.868 161.553C558.008 154.327 551.454 149.166 544.227 150.025C537.001 150.884 531.84 157.439 532.7 164.665C533.559 171.891 540.114 177.052 547.34 176.193Z" fill="white"/>
<path d="M546.767 172.466L546.672 171.673C547.434 171.577 548.164 171.419 548.862 171.133L549.148 171.863C548.386 172.181 547.592 172.403 546.767 172.466ZM544.29 172.403C543.465 172.276 542.671 172.022 541.909 171.704L542.227 170.974C542.925 171.292 543.655 171.514 544.385 171.609L544.29 172.403ZM551.339 170.688L550.862 170.053C551.466 169.609 552.005 169.069 552.482 168.466L553.117 168.974C552.609 169.609 552.005 170.212 551.339 170.688ZM539.813 170.403C539.178 169.863 538.607 169.26 538.131 168.593L538.766 168.148C539.21 168.752 539.718 169.323 540.322 169.799L539.813 170.403ZM554.101 167.482L553.402 167.101C553.752 166.434 554.006 165.704 554.165 164.973L554.927 165.132C554.768 165.958 554.482 166.751 554.101 167.482ZM536.956 166.37C536.67 165.608 536.48 164.783 536.416 163.957L537.21 163.894C537.274 164.656 537.432 165.386 537.718 166.116L536.956 166.37ZM554.355 162.719C554.323 161.957 554.164 161.195 553.942 160.497L554.704 160.243C554.958 161.036 555.117 161.862 555.149 162.687L554.355 162.719ZM537.305 161.64L536.512 161.513C536.67 160.687 536.924 159.893 537.273 159.163L538.004 159.512C537.686 160.147 537.432 160.878 537.305 161.64ZM552.958 158.433C552.545 157.798 552.037 157.226 551.466 156.718L552.005 156.115C552.64 156.655 553.18 157.29 553.625 157.988L552.958 158.433ZM539.242 157.576L538.639 157.068C539.179 156.433 539.814 155.861 540.48 155.417L540.925 156.083C540.29 156.464 539.75 156.972 539.242 157.576ZM549.592 155.448C548.926 155.099 548.195 154.877 547.433 154.718L547.592 153.924C548.418 154.083 549.211 154.369 549.942 154.718L549.592 155.448ZM542.957 155.036L542.703 154.274C543.497 153.988 544.29 153.829 545.116 153.766L545.179 154.559C544.417 154.623 543.687 154.782 542.957 155.036Z" fill="#9192FF"/>
<path d="M480.885 245.713L480.25 245.205C479.33 244.475 479.171 243.142 479.901 242.221L504.603 211.042C505.333 210.122 506.666 209.963 507.587 210.693L508.222 211.201C509.143 211.931 509.302 213.265 508.571 214.186L483.87 245.364C483.171 246.285 481.806 246.444 480.885 245.713Z" fill="#1B1B43"/>
<path d="M524.637 517.525H519.874V516.731H524.637V517.525ZM515.112 517.525H510.349V516.731H515.112V517.525ZM505.587 517.525H500.824V516.731H505.587V517.525ZM496.062 517.525H491.299V516.731H496.062V517.525ZM486.537 517.525H481.774V516.731H486.537V517.525ZM477.012 517.525H472.249V516.731H477.012V517.525ZM467.487 517.525H462.724V516.731H467.487V517.525ZM457.962 517.525H453.199V516.731H457.962V517.525ZM448.437 517.525H443.674V516.731H448.437V517.525ZM438.912 517.525H434.149V516.731H438.912V517.525ZM429.387 517.525C427.736 517.525 426.117 517.239 424.593 516.7L424.847 515.938C426.307 516.446 427.831 516.7 429.387 516.7V517.525ZM525.208 517.525L525.177 516.731C526.732 516.668 528.256 516.382 529.685 515.842L529.971 516.573C528.447 517.144 526.828 517.462 525.208 517.525ZM420.275 514.414C418.973 513.429 417.862 512.223 416.941 510.889L417.608 510.445C418.497 511.715 419.544 512.858 420.783 513.779L420.275 514.414ZM534.194 514.128L533.686 513.525C534.892 512.54 535.94 511.397 536.765 510.096L537.432 510.54C536.575 511.874 535.464 513.112 534.194 514.128ZM414.877 506.476C414.496 505.143 414.306 503.714 414.306 502.317V501.682H415.099V502.317C415.099 503.65 415.29 504.984 415.639 506.254L414.877 506.476ZM539.401 506.063L538.639 505.873C538.924 504.73 539.083 503.523 539.083 502.317V501.237H539.877V502.317C539.845 503.555 539.686 504.825 539.401 506.063ZM415.099 496.888H414.306V492.125H415.099V496.888ZM539.845 496.475H539.051V491.712H539.845V496.475ZM415.099 487.363H414.306V482.6H415.099V487.363ZM539.845 486.95H539.051V482.187H539.845V486.95ZM415.099 477.838H414.306V473.075H415.099V477.838ZM539.845 477.425H539.051V472.662H539.845V477.425ZM415.099 468.313H414.306V463.55H415.099V468.313ZM539.845 467.9H539.051V463.137H539.845V467.9ZM415.099 458.788H414.306V454.025H415.099V458.788ZM539.845 458.375H539.051V453.612H539.845V458.375ZM415.099 449.263H414.306V446.088C414.306 445.548 414.337 445.008 414.401 444.468L415.195 444.564C415.131 445.072 415.099 445.58 415.099 446.119V449.263ZM539.845 448.85H539.051V446.088C539.051 445.421 539.02 444.786 538.924 444.151L539.718 444.056C539.813 444.722 539.845 445.421 539.845 446.119V448.85ZM416.369 440.087L415.639 439.769C416.306 438.277 417.227 436.912 418.338 435.737L418.909 436.277C417.893 437.388 417.036 438.69 416.369 440.087ZM537.591 439.738C536.892 438.341 536.003 437.071 534.924 435.991L535.495 435.42C536.638 436.594 537.591 437.928 538.321 439.388L537.591 439.738ZM422.592 433.419L422.211 432.721C423.64 431.927 425.196 431.387 426.815 431.102L426.942 431.895C425.418 432.149 423.958 432.689 422.592 433.419ZM531.177 433.229C529.812 432.53 528.32 432.054 526.796 431.8L526.923 431.006C528.542 431.26 530.098 431.737 531.558 432.499L531.177 433.229ZM522.097 431.641H517.334V430.848H522.097V431.641ZM512.572 431.641H507.809V430.848H512.572V431.641ZM503.047 431.641H498.284V430.848H503.047V431.641ZM493.522 431.641H488.759V430.848H493.522V431.641ZM483.997 431.641H479.234V430.848H483.997V431.641ZM474.472 431.641H469.709V430.848H474.472V431.641ZM464.947 431.641H460.184V430.848H464.947V431.641ZM455.422 431.641H450.659V430.848H455.422V431.641ZM445.897 431.641H441.134V430.848H445.897V431.641ZM436.372 431.641H431.609V430.848H436.372V431.641Z" fill="#9192FF"/>
<path d="M515.937 503.777H414.623C408.146 503.777 402.907 498.539 402.907 492.062V427.26C402.907 420.783 408.146 415.544 414.623 415.544H515.937C522.414 415.544 527.653 420.783 527.653 427.26V492.062C527.653 498.507 522.414 503.777 515.937 503.777Z" fill="#9192FF"/>
<path d="M438.087 467.074H424.593V494.506H438.087V467.074Z" fill="white"/>
<path d="M460.693 467.963H447.199V494.506H460.693V467.963Z" fill="white"/>
<path d="M483.33 454.089H469.837V494.506H483.33V454.089Z" fill="white"/>
<path d="M505.936 442.214H492.442V494.506H505.936V442.214Z" fill="white"/>
<path d="M501.523 427.958H429.038V431.134H501.523V427.958Z" fill="white"/>
<path d="M208.312 329.406C206.026 321.437 201.168 314.452 194.469 309.531L191.802 307.562L194.088 354.616L211.677 340.995L208.312 329.406Z" fill="#FFA121"/>
<path d="M264.858 386.302L260.953 378.65C259.969 376.714 258.191 375.285 256.095 374.682L244.602 371.507L215.011 352.616L211.677 341.027L194.088 354.648L194.246 357.95C194.564 364.585 198.628 370.459 204.724 373.094L233.458 385.477L247.11 385.794C251.523 387.318 253.016 391.096 255.746 389.731C256.762 389.223 252.793 382.683 252.793 382.683L259.397 389.953L264.858 386.302Z" fill="#FFBC96"/>
<path d="M214.671 352.332L210.808 356.882L211.509 357.478L215.373 352.928L214.671 352.332Z" fill="#D28572"/>
<path d="M213.392 405.352L234.918 403.447C248.92 402.209 261.112 413.512 261.779 428.403L266.636 534.384L236.95 535.305L213.392 405.352Z" fill="#5C3DB5"/>
<path d="M239.363 534.257L240.284 563.531H284.257L262.572 545.497L261.207 531.368L239.363 534.257Z" fill="#1B1B43"/>
<path d="M262.011 544.782L252.755 551.913L253.86 553.346L263.116 546.216L262.011 544.782Z" fill="white"/>
<path d="M229.362 534.257L230.251 563.531H274.256L252.571 545.497L251.206 531.368L229.362 534.257Z" fill="#D1D1FF"/>
<path d="M252.008 544.776L242.752 551.906L243.856 553.34L253.112 546.209L252.008 544.776Z" fill="white"/>
<path d="M262.128 537.147H225.711L199.771 457.327L196.151 446.151L144.272 445.929C141.065 445.897 137.985 444.405 135.414 442.214C129.889 437.579 127.349 430.244 128.365 423.101L132.905 390.652L209.963 400.685C224.568 402.59 236.379 413.512 239.395 427.958L262.128 537.147Z" fill="#7E57EE"/>
<path d="M206.819 446.119L199.771 457.295L196.12 446.119H206.819Z" fill="#1B1B43"/>
<path d="M197.294 384.747C196.913 386.239 196.532 387.763 196.12 389.255L193.389 400.399L157.448 398.907L131.572 397.827C124.714 397.542 119.729 391.16 121.126 384.461L133.191 326.39C134.747 316.516 142.748 308.928 152.717 307.88L182.245 304.832L191.801 307.562C201.136 312.579 201.136 321.628 201.581 327.597C203.549 353.6 201.136 369.348 197.294 384.747Z" fill="#FFA121"/>
<path opacity="0.3" d="M172.91 382.873C172.529 384.365 196.532 387.731 196.12 389.255L193.389 400.399L157.448 398.907C144.875 389.445 140.176 368.808 135.604 342.995L172.91 382.873Z" fill="#1B1B43"/>
<path d="M165.767 321.628C167.354 323.31 169.132 324.803 171.132 325.882C173.133 326.993 175.292 327.787 177.546 328.041C179.768 328.327 182.118 328.136 184.086 327.089C186.087 326.104 187.357 324.009 187.611 321.723L187.96 321.755C187.96 322.929 187.642 324.136 187.071 325.215C186.468 326.295 185.547 327.184 184.499 327.787C182.372 329.025 179.832 329.248 177.451 328.962C175.069 328.644 172.783 327.787 170.751 326.581C168.719 325.374 166.941 323.755 165.481 321.882L165.767 321.628Z" fill="#1B1B43"/>
<path d="M202.374 357.124L201.708 357.061C202.374 347.917 201.708 336.645 199.739 323.628L200.406 323.532C202.374 336.613 203.041 347.917 202.374 357.124Z" fill="#1B1B43"/>
<path d="M263.461 389.414H229.648V396.081H263.461V389.414Z" fill="#1B1B43"/>
<path d="M322.04 396.081H254.063L285.337 336.328H353.282L322.04 396.081Z" fill="#9192FF"/>
<path d="M173.259 257.048C165.29 249.206 150.272 252.508 150.495 265.684C134.112 270.002 133.191 287.973 139.795 297.212L145.478 297.656L146.716 290.957L150.018 297.783L165.957 298.799L173.259 257.048Z" fill="#1B1B43"/>
<path d="M186.563 286.417V311.499C186.563 311.722 186.563 311.944 186.531 312.166C186.15 317.341 181.133 320.961 176.022 319.659C168.497 317.722 163.258 310.896 163.322 303.117L163.449 286.417H186.563Z" fill="#FFBC96"/>
<path d="M186.563 297.244V311.468C186.563 311.69 186.563 311.912 186.531 312.134C179.832 311.023 172.085 303.276 170.18 294.831L186.563 297.244Z" fill="#1B1B43"/>
<path d="M200.152 288.258C199.803 290.259 199.326 292.291 198.723 294.227C196.723 300.577 193.135 305.88 186.69 304.959C171.577 302.8 163.131 287.211 163.131 287.211L173.482 275.368L180.435 266.033L201.263 275.019C201.231 275.019 201.358 281.4 200.152 288.258Z" fill="#FFBC96"/>
<path d="M167.608 283.21C174.244 282.988 179.387 279.622 181.578 270.002C181.578 270.002 197.04 283.337 204.628 276.225C210.978 270.256 200.215 256.508 182.372 254.889C175.863 254.286 169.386 256.318 164.306 260.414C155.67 267.335 154.844 283.464 162.909 289.02L167.608 283.21Z" fill="#1B1B43"/>
<path d="M159.829 266.383C159.385 264.827 159.734 263.081 160.432 261.588C161.131 260.096 162.242 258.763 163.544 257.747C164.846 256.731 166.401 256 167.989 255.651C169.608 255.334 171.323 255.365 172.783 256.032C171.259 256.54 169.926 257.048 168.656 257.683C167.417 258.318 166.243 259.048 165.163 259.906C164.084 260.731 163.099 261.684 162.179 262.731C161.353 263.779 160.559 264.922 159.829 266.383Z" fill="#FFA121"/>
<path d="M167.961 290.098C170.615 289.036 171.725 285.575 170.442 282.368C169.158 279.161 165.966 277.422 163.313 278.484C160.659 279.546 159.548 283.007 160.832 286.214C162.116 289.421 165.308 291.16 167.961 290.098Z" fill="#FFBC96"/>
<path d="M165.639 287.719C165.766 286.607 165.766 285.56 165.449 284.607C165.131 283.623 164.528 282.797 163.798 281.94L164.02 281.654C165.036 282.194 165.925 283.147 166.306 284.321C166.687 285.496 166.528 286.798 165.989 287.814L165.639 287.719Z" fill="#1B1B43"/>
<path d="M190.5 284.353C190.5 285.306 189.801 286.068 188.976 286.068C188.118 286.068 187.452 285.306 187.452 284.353C187.452 283.401 188.15 282.639 188.976 282.639C189.801 282.67 190.5 283.432 190.5 284.353Z" fill="#1B1B43"/>
<path d="M198.564 285.718C198.469 286.544 197.77 287.147 197.008 287.052C196.246 286.957 195.738 286.226 195.834 285.369C195.929 284.544 196.627 283.94 197.389 284.036C198.12 284.131 198.659 284.861 198.564 285.718Z" fill="#1B1B43"/>
<path d="M190.404 280.099C190.468 280.892 189.198 280.956 187.325 281.019C185.451 281.083 184.15 281.654 184.15 281.146C184.15 280.638 185.515 279.337 187.356 279.051C189.261 278.733 190.341 279.146 190.404 280.099Z" fill="#1B1B43"/>
<path d="M196.405 280.861C196.278 281.654 197.199 281.845 198.596 282.099C199.993 282.353 200.882 283.051 200.945 282.543C201.009 282.035 200.12 280.638 198.786 280.13C197.389 279.622 196.564 279.94 196.405 280.861Z" fill="#1B1B43"/>
<path d="M194.151 287.115C194.5 287.56 194.913 287.941 195.294 288.322L195.897 288.893C196.119 289.084 196.342 289.306 196.532 289.624C196.627 289.782 196.723 290.004 196.723 290.227C196.754 290.449 196.659 290.703 196.564 290.862C196.342 291.211 196.088 291.433 195.834 291.592C195.294 291.941 194.691 292.1 194.119 292.195L193.992 291.878C194.468 291.56 194.976 291.275 195.357 290.957C195.548 290.798 195.707 290.608 195.77 290.449C195.834 290.29 195.834 290.258 195.738 290.068C195.548 289.75 195.008 289.306 194.691 288.83C194.31 288.385 193.992 287.845 193.802 287.274L194.151 287.115Z" fill="#1B1B43"/>
<path d="M186.467 292.735C187.388 293.783 188.372 294.767 189.515 295.402C190.658 296.037 191.992 296.228 193.389 296.069L193.484 296.418C192.817 296.704 192.055 296.863 191.293 296.831C190.531 296.799 189.769 296.577 189.103 296.196C187.769 295.434 186.785 294.259 186.182 292.926L186.467 292.735Z" fill="#1B1B43"/>
<path opacity="0.2" d="M181.006 291.751C183.076 291.751 184.753 290.073 184.753 288.004C184.753 285.935 183.076 284.258 181.006 284.258C178.937 284.258 177.26 285.935 177.26 288.004C177.26 290.073 178.937 291.751 181.006 291.751Z" fill="#FE5B52"/>
<path opacity="0.2" d="M200.152 288.258C199.802 290.259 199.326 292.291 198.723 294.227C198.151 293.561 197.77 292.703 197.77 291.751C197.77 290.163 198.755 288.83 200.152 288.258Z" fill="#FE5B52"/>
<path d="M157.289 332.677L135.604 342.995L142.398 359.124L165.163 348.615L157.289 332.677Z" fill="#FFA121"/>
<path d="M237.649 388.588C237.045 388.303 236.664 388.08 236.664 388.08L236.887 387.667C236.887 387.667 237.299 387.858 237.871 388.175L237.649 388.588Z" fill="#C5C5FF"/>
<path d="M246.634 390.843C245.935 392.24 240.569 389.763 238.061 388.557C239.998 389.636 243.332 391.732 241.871 392.906C240.665 393.827 238.029 391.859 229.393 388.271C230.695 388.874 238.442 392.557 236.474 393.954C234.346 395.478 225.266 392.144 225.266 392.144L217.36 396.399H208.248L175.514 396.621C173.45 396.621 171.418 396.367 169.449 395.859C165.576 394.875 161.893 392.938 158.813 390.335C156.845 388.684 155.162 386.779 153.765 384.651C152.717 383.064 151.796 381.381 151.066 379.603L142.43 359.156L165.163 348.647L177.038 372.745L216.185 381.254L227.107 378.523C229.457 377.92 232.791 378.936 234.854 380.175C239.839 383.223 247.3 389.509 246.634 390.843Z" fill="#FFBC96"/>
<path opacity="0.2" d="M170.053 392.43C170.053 393.636 169.831 394.748 169.45 395.827C165.576 394.843 161.893 392.906 158.813 390.303C156.845 388.652 155.162 386.747 153.765 384.619C155.48 383.222 157.67 382.397 160.052 382.397C165.576 382.429 170.053 386.905 170.053 392.43Z" fill="#FE5B52"/>
<path d="M216.09 381.032C218.789 380.143 221.551 379.349 224.345 378.778C225.742 378.492 227.171 378.238 228.631 378.174C229.362 378.143 230.092 378.143 230.822 378.238C231.203 378.301 231.552 378.397 231.902 378.492C232.251 378.619 232.6 378.746 232.918 378.873C235.585 380.079 237.902 381.794 240.157 383.572C242.411 385.35 244.506 387.287 246.57 389.287L246.665 389.382L246.697 389.509C246.761 389.954 246.729 390.335 246.475 390.747C246.316 390.906 246.189 391.097 245.967 391.192C245.776 391.319 245.586 391.351 245.395 391.382C244.633 391.509 243.967 391.351 243.363 391.192C242.093 390.843 240.982 390.271 239.839 389.7C238.728 389.096 237.617 388.493 236.569 387.826C235.489 387.191 234.473 386.461 233.394 385.794L233.87 385.032C235.743 386.144 237.553 387.287 239.268 388.62C240.125 389.287 240.982 389.954 241.712 390.874C241.903 391.097 242.062 391.351 242.189 391.668C242.252 391.827 242.284 392.017 242.284 392.208C242.252 392.43 242.189 392.652 242.062 392.843C241.776 393.16 241.427 393.287 241.141 393.351C240.823 393.446 240.569 393.446 240.252 393.478H240.157L240.061 393.446L230.187 389.319L230.473 388.62C232.029 389.35 233.553 390.112 234.981 391.065C235.68 391.573 236.442 392.017 236.95 392.906C237.077 393.129 237.14 393.478 237.045 393.764C236.918 394.081 236.664 394.272 236.474 394.367C236.029 394.589 235.553 394.653 235.108 394.684C233.33 394.716 231.679 394.303 230.028 393.891C228.377 393.446 226.758 392.938 225.171 392.367L225.298 392.017C226.885 392.557 228.504 393.033 230.155 393.414C231.775 393.795 233.457 394.145 235.077 394.049C235.839 394.018 236.759 393.668 236.41 393.16C236.061 392.557 235.331 392.049 234.664 391.605C233.267 390.716 231.743 389.954 230.219 389.287L230.505 388.588L240.411 392.652L240.22 392.621C240.474 392.589 240.728 392.589 240.919 392.525C241.141 392.494 241.331 392.367 241.395 392.303C241.522 392.24 241.331 391.763 241.046 391.382C240.411 390.62 239.585 389.954 238.76 389.319C237.077 388.049 235.267 386.906 233.426 385.826L233.902 385.064C234.95 385.731 235.966 386.461 237.045 387.096C238.093 387.763 239.172 388.366 240.252 388.969C241.363 389.509 242.474 390.081 243.617 390.398C244.189 390.557 244.792 390.684 245.268 390.589L245.459 390.557C245.522 390.557 245.554 390.493 245.586 390.493C245.681 390.462 245.713 390.366 245.808 390.335C245.903 390.208 245.935 389.954 245.903 389.763L246.03 389.985C244.03 387.985 241.903 386.08 239.712 384.302C237.521 382.524 235.235 380.778 232.727 379.603L231.775 379.222C231.457 379.159 231.108 379.063 230.79 378.968C230.124 378.873 229.425 378.873 228.727 378.905C227.33 378.968 225.933 379.159 224.536 379.413C221.742 379.921 218.979 380.651 216.281 381.476L216.09 381.032Z" fill="#D28572"/>
<path d="M142.557 359.442L142.272 358.807L164.719 348.456L155.353 326.58L155.988 326.295L165.608 348.805L142.557 359.442Z" fill="#1B1B43"/>
<path d="M145.764 455.231H144.558V557.784H145.764V455.231Z" fill="#1B1B43"/>
<path d="M173.831 459.772H116.491C112.585 459.772 109.442 456.629 109.442 452.723C109.442 448.818 112.585 445.675 116.491 445.675H173.831C177.736 445.675 180.88 448.818 180.88 452.723C180.88 456.629 177.736 459.772 173.831 459.772Z" fill="#D1D1FF"/>
<path d="M169.291 564.452H121.062V563.277C121.062 557.435 125.825 552.672 131.667 552.672H158.686C164.528 552.672 169.291 557.435 169.291 563.277V564.452Z" fill="#D1D1FF"/>
<path d="M214.567 402.327L213.546 402.971L315.18 564.069L316.201 563.426L214.567 402.327Z" fill="#1B1B43"/>
<path d="M315.165 402.366L213.493 563.426L214.513 564.07L316.185 403.01L315.165 402.366Z" fill="#1B1B43"/>
<path d="M353.885 396.081H175.799V409.512H353.885V396.081Z" fill="#D1D1FF"/>
<path d="M190.722 181.96C170.212 181.96 153.511 165.259 153.511 144.749C153.511 124.238 170.212 107.538 190.722 107.538C211.233 107.538 227.933 124.238 227.933 144.749C227.965 165.259 211.264 181.96 190.722 181.96ZM190.722 108.331C170.624 108.331 154.305 124.683 154.305 144.749C154.305 164.846 170.656 181.166 190.722 181.166C210.788 181.166 227.139 164.815 227.139 144.749C227.171 124.651 210.82 108.331 190.722 108.331Z" fill="#9192FF"/>
<path d="M215.9 170.656C238.257 170.656 256.381 152.532 256.381 130.175C256.381 107.818 238.257 89.6938 215.9 89.6938C193.543 89.6938 175.419 107.818 175.419 130.175C175.419 152.532 193.543 170.656 215.9 170.656Z" fill="#EBEBFF"/>
<path d="M215.9 130.937L193.453 113.348L194.215 112.395L215.9 129.381L227.965 119.158L228.759 120.079L215.9 130.937Z" fill="#1B1B43"/>
<path d="M110.807 217.488H90.2333C86.9313 217.488 84.2325 220.155 84.2325 223.489V244.063C84.2325 247.365 86.8996 250.063 90.2333 250.063H104.902L111.22 258.795V250.032C114.332 249.809 116.776 247.238 116.776 244.063V223.489C116.808 220.155 114.141 217.488 110.807 217.488Z" fill="white"/>
<path d="M111.665 260.001L104.743 250.444H90.2651C86.7409 250.444 83.8834 247.587 83.8834 244.062V223.488C83.8834 219.964 86.7409 217.107 90.2651 217.107H110.807C114.332 217.107 117.189 219.964 117.189 223.488V244.062C117.189 247.269 114.776 249.968 111.633 250.381V260.001H111.665ZM90.2651 217.9C87.1854 217.9 84.6771 220.409 84.6771 223.488V244.062C84.6771 247.142 87.1854 249.65 90.2651 249.65H105.156L110.871 257.556V249.65L111.252 249.619C114.173 249.396 116.427 246.952 116.427 244.031V223.457C116.427 220.377 113.919 217.869 110.839 217.869H90.2651V217.9Z" fill="#9192FF"/>
<path d="M100.108 244.348L91.8844 232.442L93.8529 231.109L99.9172 239.84L109.029 223.52L111.093 224.695L100.108 244.348Z" fill="#9192FF"/>
<path d="M564.007 563.245H76.2V564.452H564.007V563.245Z" fill="#1B1B43"/>
</svg>
